<svg width="39" height="36" viewBox="0 0 39 36" fill="none" xmlns="http://www.w3.org/2000/svg">
<path d="M8.53113 28.0229V15.1385C8.53113 14.6851 8.63277 14.2556 8.83606 13.85C9.03935 13.4444 9.31947 13.1103 9.67641 12.8479L18.2661 6.40565C18.7671 6.02389 19.3398 5.83301 19.984 5.83301C20.6282 5.83301 21.2009 6.02389 21.7019 6.40565L30.2916 12.8479C30.6495 13.1103 30.9301 13.4444 31.1334 13.85C31.3366 14.2556 31.4378 14.6851 31.4369 15.1385V28.0229C31.4369 28.8103 31.1563 29.4846 30.5951 30.0458C30.0339 30.607 29.3601 30.8871 28.5736 30.8861H24.2788C23.8732 30.8861 23.5334 30.7487 23.2595 30.4738C22.9856 30.199 22.8482 29.8592 22.8472 29.4545V22.2965C22.8472 21.8909 22.7098 21.5511 22.4349 21.2772C22.16 21.0033 21.8203 20.8658 21.4156 20.8649H18.5524C18.1468 20.8649 17.807 21.0023 17.5331 21.2772C17.2592 21.5521 17.1217 21.8918 17.1208 22.2965V29.4545C17.1208 29.8602 16.9833 30.2004 16.7085 30.4753C16.4336 30.7501 16.0938 30.8871 15.6892 30.8861H11.3943C10.607 30.8861 9.93315 30.606 9.37291 30.0458C8.81268 29.4856 8.53208 28.8113 8.53113 28.0229Z" fill="#DFDFDF"/>
</svg>
